<mxfile host="app.diagrams.net" agent="Mozilla/5.0 (Windows NT 10.0; Win64; x64) AppleWebKit/537.36 (KHTML, like Gecko) Chrome/134.0.0.0 Safari/537.36" version="26.1.0">
  <diagram name="Page-1" id="a_6hY54vG2Vuo-opZS6R">
    <mxGraphModel dx="-513" dy="1819" grid="0" gridSize="10" guides="1" tooltips="1" connect="1" arrows="1" fold="1" page="1" pageScale="1" pageWidth="1100" pageHeight="850" background="#ffffff" math="0" shadow="1">
      <root>
        <mxCell id="0" />
        <mxCell id="1" parent="0" />
        <mxCell id="R7RCaSq4BXocxwMqMM4Z-10" value="" style="rounded=0;whiteSpace=wrap;html=1;" parent="1" vertex="1">
          <mxGeometry x="2533" y="-773" width="378" height="1493" as="geometry" />
        </mxCell>
        <mxCell id="R7RCaSq4BXocxwMqMM4Z-5" style="rounded=0;orthogonalLoop=1;jettySize=auto;html=1;entryX=0;entryY=0.5;entryDx=0;entryDy=0;endArrow=none;startFill=0;exitX=1;exitY=0.3333333333333333;exitDx=0;exitDy=0;exitPerimeter=0;" parent="1" source="yd8y5yrhZsdy2DMW83g7-3" target="R7RCaSq4BXocxwMqMM4Z-4" edge="1">
          <mxGeometry relative="1" as="geometry">
            <mxPoint x="2400" y="-648.3333333333333" as="sourcePoint" />
          </mxGeometry>
        </mxCell>
        <mxCell id="R7RCaSq4BXocxwMqMM4Z-20" style="rounded=0;orthogonalLoop=1;jettySize=auto;html=1;entryX=0;entryY=0.5;entryDx=0;entryDy=0;endArrow=none;startFill=0;exitX=1;exitY=0.3333333333333333;exitDx=0;exitDy=0;exitPerimeter=0;" parent="1" source="yd8y5yrhZsdy2DMW83g7-3" target="R7RCaSq4BXocxwMqMM4Z-18" edge="1">
          <mxGeometry relative="1" as="geometry">
            <mxPoint x="2400" y="-648.3333333333333" as="sourcePoint" />
          </mxGeometry>
        </mxCell>
        <mxCell id="R7RCaSq4BXocxwMqMM4Z-25" style="rounded=0;orthogonalLoop=1;jettySize=auto;html=1;entryX=0;entryY=0.5;entryDx=0;entryDy=0;endArrow=none;startFill=0;exitX=1;exitY=0.3333333333333333;exitDx=0;exitDy=0;exitPerimeter=0;" parent="1" source="yd8y5yrhZsdy2DMW83g7-3" target="R7RCaSq4BXocxwMqMM4Z-23" edge="1">
          <mxGeometry relative="1" as="geometry">
            <mxPoint x="2400" y="-648.3333333333333" as="sourcePoint" />
          </mxGeometry>
        </mxCell>
        <mxCell id="R7RCaSq4BXocxwMqMM4Z-31" style="rounded=0;orthogonalLoop=1;jettySize=auto;html=1;entryX=0;entryY=0.5;entryDx=0;entryDy=0;endArrow=none;startFill=0;exitX=1;exitY=0.3333333333333333;exitDx=0;exitDy=0;exitPerimeter=0;" parent="1" source="yd8y5yrhZsdy2DMW83g7-3" target="R7RCaSq4BXocxwMqMM4Z-30" edge="1">
          <mxGeometry relative="1" as="geometry">
            <mxPoint x="2376.5" y="-651" as="sourcePoint" />
          </mxGeometry>
        </mxCell>
        <mxCell id="R7RCaSq4BXocxwMqMM4Z-22" style="rounded=0;orthogonalLoop=1;jettySize=auto;html=1;entryX=1;entryY=0.5;entryDx=0;entryDy=0;endArrow=none;startFill=0;exitX=0;exitY=0.3333333333333333;exitDx=0;exitDy=0;exitPerimeter=0;" parent="1" source="yd8y5yrhZsdy2DMW83g7-4" target="R7RCaSq4BXocxwMqMM4Z-18" edge="1">
          <mxGeometry relative="1" as="geometry">
            <mxPoint x="3096" y="-660.3333333333333" as="sourcePoint" />
          </mxGeometry>
        </mxCell>
        <mxCell id="R7RCaSq4BXocxwMqMM4Z-27" style="rounded=0;orthogonalLoop=1;jettySize=auto;html=1;entryX=1;entryY=0.5;entryDx=0;entryDy=0;endArrow=none;startFill=0;exitX=0;exitY=0.3333333333333333;exitDx=0;exitDy=0;exitPerimeter=0;" parent="1" source="yd8y5yrhZsdy2DMW83g7-4" target="R7RCaSq4BXocxwMqMM4Z-23" edge="1">
          <mxGeometry relative="1" as="geometry">
            <mxPoint x="3096" y="-660.3333333333333" as="sourcePoint" />
          </mxGeometry>
        </mxCell>
        <mxCell id="R7RCaSq4BXocxwMqMM4Z-44" style="rounded=0;orthogonalLoop=1;jettySize=auto;html=1;entryX=1;entryY=0.5;entryDx=0;entryDy=0;endArrow=none;startFill=0;exitX=0;exitY=0.3333333333333333;exitDx=0;exitDy=0;exitPerimeter=0;" parent="1" source="yd8y5yrhZsdy2DMW83g7-4" target="R7RCaSq4BXocxwMqMM4Z-43" edge="1">
          <mxGeometry relative="1" as="geometry">
            <mxPoint x="3096" y="-660.3333333333333" as="sourcePoint" />
          </mxGeometry>
        </mxCell>
        <mxCell id="R7RCaSq4BXocxwMqMM4Z-6" style="rounded=0;orthogonalLoop=1;jettySize=auto;html=1;entryX=0;entryY=0.5;entryDx=0;entryDy=0;endArrow=none;startFill=0;exitX=1;exitY=0.3333333333333333;exitDx=0;exitDy=0;exitPerimeter=0;" parent="1" source="R7RCaSq4BXocxwMqMM4Z-3" target="R7RCaSq4BXocxwMqMM4Z-4" edge="1">
          <mxGeometry relative="1" as="geometry" />
        </mxCell>
        <mxCell id="R7RCaSq4BXocxwMqMM4Z-19" style="rounded=0;orthogonalLoop=1;jettySize=auto;html=1;entryX=0;entryY=0.5;entryDx=0;entryDy=0;endArrow=none;startFill=0;exitX=1;exitY=0.3333333333333333;exitDx=0;exitDy=0;exitPerimeter=0;" parent="1" source="R7RCaSq4BXocxwMqMM4Z-3" target="R7RCaSq4BXocxwMqMM4Z-18" edge="1">
          <mxGeometry relative="1" as="geometry" />
        </mxCell>
        <mxCell id="R7RCaSq4BXocxwMqMM4Z-24" style="rounded=0;orthogonalLoop=1;jettySize=auto;html=1;entryX=0;entryY=0.5;entryDx=0;entryDy=0;endArrow=none;startFill=0;exitX=1;exitY=0.3333333333333333;exitDx=0;exitDy=0;exitPerimeter=0;" parent="1" source="R7RCaSq4BXocxwMqMM4Z-3" target="R7RCaSq4BXocxwMqMM4Z-23" edge="1">
          <mxGeometry relative="1" as="geometry" />
        </mxCell>
        <mxCell id="R7RCaSq4BXocxwMqMM4Z-47" style="rounded=0;orthogonalLoop=1;jettySize=auto;html=1;entryX=0;entryY=0.5;entryDx=0;entryDy=0;endArrow=none;startFill=0;exitX=1;exitY=0.3333333333333333;exitDx=0;exitDy=0;exitPerimeter=0;" parent="1" source="R7RCaSq4BXocxwMqMM4Z-3" target="R7RCaSq4BXocxwMqMM4Z-45" edge="1">
          <mxGeometry relative="1" as="geometry" />
        </mxCell>
        <mxCell id="yd8y5yrhZsdy2DMW83g7-26" style="edgeStyle=none;rounded=0;orthogonalLoop=1;jettySize=auto;html=1;entryX=0;entryY=0.5;entryDx=0;entryDy=0;endArrow=none;endFill=1;startFill=0;exitX=1;exitY=0.3333333333333333;exitDx=0;exitDy=0;exitPerimeter=0;" edge="1" parent="1" source="R7RCaSq4BXocxwMqMM4Z-3" target="yd8y5yrhZsdy2DMW83g7-24">
          <mxGeometry relative="1" as="geometry" />
        </mxCell>
        <mxCell id="R7RCaSq4BXocxwMqMM4Z-3" value="staff umum" style="shape=umlActor;verticalLabelPosition=bottom;verticalAlign=top;html=1;outlineConnect=0;" parent="1" vertex="1">
          <mxGeometry x="2263" y="-346" width="139.5" height="208" as="geometry" />
        </mxCell>
        <mxCell id="R7RCaSq4BXocxwMqMM4Z-4" value="Login" style="ellipse;whiteSpace=wrap;html=1;" parent="1" vertex="1">
          <mxGeometry x="2634" y="-725" width="176" height="80" as="geometry" />
        </mxCell>
        <mxCell id="R7RCaSq4BXocxwMqMM4Z-7" value="" style="endArrow=none;html=1;rounded=0;exitX=0;exitY=0.3333333333333333;exitDx=0;exitDy=0;exitPerimeter=0;entryX=1;entryY=0.5;entryDx=0;entryDy=0;" parent="1" source="yd8y5yrhZsdy2DMW83g7-4" target="R7RCaSq4BXocxwMqMM4Z-4" edge="1">
          <mxGeometry width="50" height="50" relative="1" as="geometry">
            <mxPoint x="3096" y="-660.3333333333333" as="sourcePoint" />
            <mxPoint x="2916.5" y="-408" as="targetPoint" />
          </mxGeometry>
        </mxCell>
        <mxCell id="R7RCaSq4BXocxwMqMM4Z-11" value="Mengelola data pengusul" style="ellipse;whiteSpace=wrap;html=1;" parent="1" vertex="1">
          <mxGeometry x="2640" y="-14" width="176" height="80" as="geometry" />
        </mxCell>
        <mxCell id="R7RCaSq4BXocxwMqMM4Z-13" value="Mengelola Jenis Surat" style="ellipse;whiteSpace=wrap;html=1;" parent="1" vertex="1">
          <mxGeometry x="2640" y="86" width="176" height="80" as="geometry" />
        </mxCell>
        <mxCell id="R7RCaSq4BXocxwMqMM4Z-21" style="rounded=0;orthogonalLoop=1;jettySize=auto;html=1;entryX=1;entryY=0.5;entryDx=0;entryDy=0;exitX=0;exitY=0.3333333333333333;exitDx=0;exitDy=0;exitPerimeter=0;endArrow=none;startFill=0;" parent="1" source="yd8y5yrhZsdy2DMW83g7-2" target="R7RCaSq4BXocxwMqMM4Z-4" edge="1">
          <mxGeometry relative="1" as="geometry">
            <mxPoint x="3125.5" y="-157.33333333333348" as="sourcePoint" />
          </mxGeometry>
        </mxCell>
        <mxCell id="R7RCaSq4BXocxwMqMM4Z-26" style="rounded=0;orthogonalLoop=1;jettySize=auto;html=1;entryX=1;entryY=0.5;entryDx=0;entryDy=0;endArrow=none;startFill=0;exitX=0;exitY=0.3333333333333333;exitDx=0;exitDy=0;exitPerimeter=0;" parent="1" source="yd8y5yrhZsdy2DMW83g7-2" target="R7RCaSq4BXocxwMqMM4Z-23" edge="1">
          <mxGeometry relative="1" as="geometry">
            <mxPoint x="3125.5" y="-157.33333333333348" as="sourcePoint" />
          </mxGeometry>
        </mxCell>
        <mxCell id="R7RCaSq4BXocxwMqMM4Z-29" style="rounded=0;orthogonalLoop=1;jettySize=auto;html=1;entryX=1;entryY=0.5;entryDx=0;entryDy=0;endArrow=none;startFill=0;exitX=0;exitY=0.3333333333333333;exitDx=0;exitDy=0;exitPerimeter=0;" parent="1" source="yd8y5yrhZsdy2DMW83g7-2" target="R7RCaSq4BXocxwMqMM4Z-11" edge="1">
          <mxGeometry relative="1" as="geometry">
            <mxPoint x="3125.5" y="-157.33333333333348" as="sourcePoint" />
          </mxGeometry>
        </mxCell>
        <mxCell id="R7RCaSq4BXocxwMqMM4Z-41" style="rounded=0;orthogonalLoop=1;jettySize=auto;html=1;entryX=1;entryY=0.5;entryDx=0;entryDy=0;endArrow=none;startFill=0;exitX=0;exitY=0.3333333333333333;exitDx=0;exitDy=0;exitPerimeter=0;" parent="1" source="yd8y5yrhZsdy2DMW83g7-2" target="R7RCaSq4BXocxwMqMM4Z-37" edge="1">
          <mxGeometry relative="1" as="geometry">
            <mxPoint x="3125.5" y="-157.33333333333348" as="sourcePoint" />
          </mxGeometry>
        </mxCell>
        <mxCell id="R7RCaSq4BXocxwMqMM4Z-42" style="rounded=0;orthogonalLoop=1;jettySize=auto;html=1;entryX=1;entryY=0.5;entryDx=0;entryDy=0;endArrow=none;startFill=0;exitX=0;exitY=0.3333333333333333;exitDx=0;exitDy=0;exitPerimeter=0;" parent="1" source="yd8y5yrhZsdy2DMW83g7-2" target="R7RCaSq4BXocxwMqMM4Z-13" edge="1">
          <mxGeometry relative="1" as="geometry">
            <mxPoint x="3125.5" y="-157.33333333333348" as="sourcePoint" />
          </mxGeometry>
        </mxCell>
        <mxCell id="R7RCaSq4BXocxwMqMM4Z-49" style="rounded=0;orthogonalLoop=1;jettySize=auto;html=1;entryX=1;entryY=0.5;entryDx=0;entryDy=0;endArrow=none;startFill=0;exitX=0;exitY=0.3333333333333333;exitDx=0;exitDy=0;exitPerimeter=0;" parent="1" source="yd8y5yrhZsdy2DMW83g7-2" target="R7RCaSq4BXocxwMqMM4Z-18" edge="1">
          <mxGeometry relative="1" as="geometry">
            <mxPoint x="3125.5" y="-157.33333333333348" as="sourcePoint" />
          </mxGeometry>
        </mxCell>
        <mxCell id="R7RCaSq4BXocxwMqMM4Z-18" value="Melihat Status Surat" style="ellipse;whiteSpace=wrap;html=1;" parent="1" vertex="1">
          <mxGeometry x="2640" y="-107" width="176" height="80" as="geometry" />
        </mxCell>
        <mxCell id="R7RCaSq4BXocxwMqMM4Z-23" value="Logout" style="ellipse;whiteSpace=wrap;html=1;" parent="1" vertex="1">
          <mxGeometry x="2634" y="598" width="176" height="80" as="geometry" />
        </mxCell>
        <mxCell id="R7RCaSq4BXocxwMqMM4Z-28" value="&lt;b&gt;&lt;font style=&quot;font-size: 14px;&quot;&gt;Pengelolaan Surat&lt;/font&gt;&lt;/b&gt;" style="text;html=1;align=center;verticalAlign=middle;whiteSpace=wrap;rounded=0;" parent="1" vertex="1">
          <mxGeometry x="2630.5" y="-773" width="162" height="30" as="geometry" />
        </mxCell>
        <mxCell id="R7RCaSq4BXocxwMqMM4Z-30" value="Mengajukan Surat" style="ellipse;whiteSpace=wrap;html=1;" parent="1" vertex="1">
          <mxGeometry x="2634" y="-614" width="176" height="80" as="geometry" />
        </mxCell>
        <mxCell id="R7RCaSq4BXocxwMqMM4Z-32" value="Memberikan Nomor Surat" style="ellipse;whiteSpace=wrap;html=1;" parent="1" vertex="1">
          <mxGeometry x="2628" y="406" width="176" height="80" as="geometry" />
        </mxCell>
        <mxCell id="R7RCaSq4BXocxwMqMM4Z-37" value="Mengelola Surat" style="ellipse;whiteSpace=wrap;html=1;" parent="1" vertex="1">
          <mxGeometry x="2640" y="-515" width="176" height="80" as="geometry" />
        </mxCell>
        <mxCell id="R7RCaSq4BXocxwMqMM4Z-43" value="Menyetujui atau menolak surat" style="ellipse;whiteSpace=wrap;html=1;" parent="1" vertex="1">
          <mxGeometry x="2640" y="-213" width="176" height="80" as="geometry" />
        </mxCell>
        <mxCell id="R7RCaSq4BXocxwMqMM4Z-45" value="Meneruskan ke Kepala Sub" style="ellipse;whiteSpace=wrap;html=1;" parent="1" vertex="1">
          <mxGeometry x="2645" y="-312" width="176" height="80" as="geometry" />
        </mxCell>
        <mxCell id="yd8y5yrhZsdy2DMW83g7-5" style="rounded=0;orthogonalLoop=1;jettySize=auto;html=1;entryX=0;entryY=0.5;entryDx=0;entryDy=0;endArrow=none;startFill=0;exitX=1;exitY=0.3333333333333333;exitDx=0;exitDy=0;exitPerimeter=0;" edge="1" parent="1" source="yd8y5yrhZsdy2DMW83g7-1" target="R7RCaSq4BXocxwMqMM4Z-23">
          <mxGeometry relative="1" as="geometry" />
        </mxCell>
        <mxCell id="yd8y5yrhZsdy2DMW83g7-6" style="rounded=0;orthogonalLoop=1;jettySize=auto;html=1;entryX=0;entryY=0.5;entryDx=0;entryDy=0;endArrow=none;startFill=0;exitX=1;exitY=0.3333333333333333;exitDx=0;exitDy=0;exitPerimeter=0;" edge="1" parent="1" source="yd8y5yrhZsdy2DMW83g7-1" target="R7RCaSq4BXocxwMqMM4Z-4">
          <mxGeometry relative="1" as="geometry" />
        </mxCell>
        <mxCell id="yd8y5yrhZsdy2DMW83g7-9" style="rounded=0;orthogonalLoop=1;jettySize=auto;html=1;entryX=0;entryY=0.5;entryDx=0;entryDy=0;exitX=1;exitY=0.3333333333333333;exitDx=0;exitDy=0;exitPerimeter=0;endArrow=none;startFill=0;" edge="1" parent="1" source="yd8y5yrhZsdy2DMW83g7-1" target="R7RCaSq4BXocxwMqMM4Z-18">
          <mxGeometry relative="1" as="geometry" />
        </mxCell>
        <mxCell id="yd8y5yrhZsdy2DMW83g7-23" style="edgeStyle=none;rounded=0;orthogonalLoop=1;jettySize=auto;html=1;entryX=0;entryY=0.5;entryDx=0;entryDy=0;endArrow=none;startFill=0;exitX=1;exitY=0.3333333333333333;exitDx=0;exitDy=0;exitPerimeter=0;" edge="1" parent="1" source="yd8y5yrhZsdy2DMW83g7-1" target="R7RCaSq4BXocxwMqMM4Z-45">
          <mxGeometry relative="1" as="geometry" />
        </mxCell>
        <mxCell id="yd8y5yrhZsdy2DMW83g7-25" style="edgeStyle=none;rounded=0;orthogonalLoop=1;jettySize=auto;html=1;entryX=0;entryY=0.5;entryDx=0;entryDy=0;endArrow=none;endFill=1;startFill=0;exitX=1;exitY=0.3333333333333333;exitDx=0;exitDy=0;exitPerimeter=0;" edge="1" parent="1" source="yd8y5yrhZsdy2DMW83g7-1" target="yd8y5yrhZsdy2DMW83g7-24">
          <mxGeometry relative="1" as="geometry" />
        </mxCell>
        <mxCell id="yd8y5yrhZsdy2DMW83g7-1" value="Tata Usaha" style="shape=umlActor;verticalLabelPosition=bottom;verticalAlign=top;html=1;outlineConnect=0;" vertex="1" parent="1">
          <mxGeometry x="2263" y="72" width="139.5" height="208" as="geometry" />
        </mxCell>
        <mxCell id="yd8y5yrhZsdy2DMW83g7-19" style="rounded=0;orthogonalLoop=1;jettySize=auto;html=1;entryX=1;entryY=0.5;entryDx=0;entryDy=0;endArrow=none;startFill=0;exitX=0;exitY=0.3333333333333333;exitDx=0;exitDy=0;exitPerimeter=0;" edge="1" parent="1" source="yd8y5yrhZsdy2DMW83g7-2" target="R7RCaSq4BXocxwMqMM4Z-32">
          <mxGeometry relative="1" as="geometry" />
        </mxCell>
        <mxCell id="yd8y5yrhZsdy2DMW83g7-28" style="edgeStyle=none;rounded=0;orthogonalLoop=1;jettySize=auto;html=1;entryX=1;entryY=0.5;entryDx=0;entryDy=0;endArrow=none;startFill=0;exitX=0;exitY=0.3333333333333333;exitDx=0;exitDy=0;exitPerimeter=0;" edge="1" parent="1" source="yd8y5yrhZsdy2DMW83g7-2" target="yd8y5yrhZsdy2DMW83g7-22">
          <mxGeometry relative="1" as="geometry" />
        </mxCell>
        <mxCell id="yd8y5yrhZsdy2DMW83g7-29" style="edgeStyle=none;rounded=0;orthogonalLoop=1;jettySize=auto;html=1;entryX=1;entryY=0.5;entryDx=0;entryDy=0;endArrow=none;startFill=0;exitX=0;exitY=0.3333333333333333;exitDx=0;exitDy=0;exitPerimeter=0;" edge="1" parent="1" source="yd8y5yrhZsdy2DMW83g7-2" target="yd8y5yrhZsdy2DMW83g7-11">
          <mxGeometry relative="1" as="geometry" />
        </mxCell>
        <mxCell id="yd8y5yrhZsdy2DMW83g7-2" value="Admin" style="shape=umlActor;verticalLabelPosition=bottom;verticalAlign=top;html=1;outlineConnect=0;" vertex="1" parent="1">
          <mxGeometry x="3097.5" y="-218" width="139.5" height="208" as="geometry" />
        </mxCell>
        <mxCell id="yd8y5yrhZsdy2DMW83g7-12" style="rounded=0;orthogonalLoop=1;jettySize=auto;html=1;entryX=0;entryY=0.5;entryDx=0;entryDy=0;endArrow=none;startFill=0;exitX=1;exitY=0.3333333333333333;exitDx=0;exitDy=0;exitPerimeter=0;" edge="1" parent="1" source="yd8y5yrhZsdy2DMW83g7-3" target="yd8y5yrhZsdy2DMW83g7-11">
          <mxGeometry relative="1" as="geometry" />
        </mxCell>
        <mxCell id="yd8y5yrhZsdy2DMW83g7-20" style="edgeStyle=none;rounded=0;orthogonalLoop=1;jettySize=auto;html=1;entryX=0;entryY=0.5;entryDx=0;entryDy=0;endArrow=none;startFill=0;exitX=1;exitY=0.3333333333333333;exitDx=0;exitDy=0;exitPerimeter=0;" edge="1" parent="1" source="yd8y5yrhZsdy2DMW83g7-3" target="yd8y5yrhZsdy2DMW83g7-10">
          <mxGeometry relative="1" as="geometry" />
        </mxCell>
        <mxCell id="yd8y5yrhZsdy2DMW83g7-3" value="Pengusul" style="shape=umlActor;verticalLabelPosition=bottom;verticalAlign=top;html=1;outlineConnect=0;" vertex="1" parent="1">
          <mxGeometry x="2263" y="-720" width="139.5" height="208" as="geometry" />
        </mxCell>
        <mxCell id="yd8y5yrhZsdy2DMW83g7-4" value="Kepala sub" style="shape=umlActor;verticalLabelPosition=bottom;verticalAlign=top;html=1;outlineConnect=0;" vertex="1" parent="1">
          <mxGeometry x="3097.5" y="-731" width="139.5" height="208" as="geometry" />
        </mxCell>
        <mxCell id="yd8y5yrhZsdy2DMW83g7-10" value="Mendapatkan notifikasi status surat" style="ellipse;whiteSpace=wrap;html=1;" vertex="1" parent="1">
          <mxGeometry x="2640" y="186" width="176" height="80" as="geometry" />
        </mxCell>
        <mxCell id="yd8y5yrhZsdy2DMW83g7-11" value="Mengunduh surat" style="ellipse;whiteSpace=wrap;html=1;" vertex="1" parent="1">
          <mxGeometry x="2634" y="301" width="176" height="80" as="geometry" />
        </mxCell>
        <mxCell id="yd8y5yrhZsdy2DMW83g7-22" value="Menerbitkan surat" style="ellipse;whiteSpace=wrap;html=1;" vertex="1" parent="1">
          <mxGeometry x="2634" y="504" width="176" height="80" as="geometry" />
        </mxCell>
        <mxCell id="yd8y5yrhZsdy2DMW83g7-24" value="Melihat dan memeriksa surat" style="ellipse;whiteSpace=wrap;html=1;" vertex="1" parent="1">
          <mxGeometry x="2645" y="-418" width="176" height="80" as="geometry" />
        </mxCell>
      </root>
    </mxGraphModel>
  </diagram>
</mxfile>
